<svg width="132" height="52" viewBox="0 0 132 52" fill="none" xmlns="http://www.w3.org/2000/svg">
<path d="M37.4102 37.9023C38.9258 37.9016 40.3881 38.4611 41.5161 39.4733C41.5492 39.5027 41.5761 39.5385 41.595 39.5785C41.6138 39.6185 41.6244 39.662 41.626 39.7062C41.6276 39.7504 41.6201 39.7945 41.6041 39.8358C41.5882 39.877 41.5641 39.9147 41.5332 39.9464C41.2802 40.2164 41.0262 40.4703 40.7732 40.7403C40.6382 40.8923 40.5032 40.8753 40.3342 40.7233C39.5425 40.0128 38.5246 39.6057 37.4612 39.5743C36.324 39.6128 35.2461 40.0915 34.4552 40.9095C33.6643 41.7276 33.2223 42.8209 33.2223 43.9588C33.2223 45.0967 33.6643 46.1901 34.4552 47.0081C35.2461 47.8262 36.324 48.3049 37.4612 48.3433C38.3382 48.3412 39.2039 48.1453 39.9962 47.7693V45.3023H38.3402C38.2993 45.3042 38.2584 45.2979 38.22 45.2838C38.1816 45.2696 38.1464 45.2479 38.1165 45.2199C38.0865 45.192 38.0626 45.1583 38.0459 45.121C38.0292 45.0836 38.0201 45.0432 38.0192 45.0023V44.0223C38.0176 43.9798 38.0249 43.9373 38.0405 43.8977C38.0561 43.8581 38.0796 43.8221 38.1097 43.7919C38.1399 43.7618 38.1759 43.7382 38.2156 43.7226C38.2552 43.707 38.2976 43.6998 38.3402 43.7013H41.4152C41.497 43.7057 41.5738 43.7416 41.6298 43.8014C41.6857 43.8612 41.7164 43.9404 41.7152 44.0223C41.7152 45.3743 41.7322 47.3343 41.7322 48.6863C41.7225 48.7903 41.6744 48.887 41.5972 48.9573C40.3213 49.6873 38.8771 50.0716 37.4072 50.0723C36.6019 50.0827 35.8024 49.9329 35.0554 49.6319C34.3084 49.3309 33.6287 48.8845 33.0555 48.3187C32.4824 47.7528 32.0273 47.0788 31.7167 46.3357C31.4061 45.5926 31.2462 44.7952 31.2462 43.9898C31.2462 43.1844 31.4061 42.3871 31.7167 41.644C32.0273 40.9009 32.4824 40.2268 33.0555 39.661C33.6287 39.0952 34.3084 38.6488 35.0554 38.3477C35.8024 38.0467 36.6019 37.897 37.4072 37.9073L37.4102 37.9023Z" fill="#424242"/>
<path d="M55.3441 37.9024C56.5472 37.899 57.7243 38.2524 58.7265 38.9181C59.7287 39.5837 60.511 40.5315 60.9746 41.6417C61.4381 42.752 61.5619 43.9747 61.3305 45.1554C61.0991 46.336 60.5227 47.4215 59.6744 48.2746C58.826 49.1277 57.7438 49.7101 56.5645 49.9481C55.3852 50.1861 54.1617 50.0691 53.0489 49.6118C51.9361 49.1545 50.9839 48.3775 50.3127 47.379C49.6415 46.3805 49.2815 45.2054 49.2781 44.0023C49.2745 43.2031 49.4285 42.411 49.7316 41.6715C50.0348 40.9319 50.4809 40.2596 51.0445 39.6928C51.6081 39.1261 52.278 38.6762 53.0158 38.3689C53.7536 38.0617 54.5448 37.9031 55.3441 37.9024ZM55.3441 48.3783C56.2143 48.3815 57.0659 48.1262 57.7908 47.6446C58.5157 47.1631 59.0813 46.4771 59.4157 45.6737C59.7502 44.8702 59.8385 43.9855 59.6694 43.1319C59.5003 42.2782 59.0814 41.494 58.466 40.8787C57.8506 40.2634 57.0663 39.8447 56.2126 39.6759C55.3589 39.507 54.4742 39.5955 53.6708 39.9301C52.8675 40.2648 52.1816 40.8304 51.7003 41.5554C51.2189 42.2804 50.9637 43.1321 50.9671 44.0023C50.9716 45.1616 51.4343 46.2721 52.2542 47.0917C53.0741 47.9113 54.1848 48.3744 55.3441 48.3783Z" fill="#424242"/>
<path d="M74.8801 37.9024C76.0832 37.899 77.2603 38.2524 78.2625 38.9181C79.2647 39.5837 80.0471 40.5315 80.5106 41.6417C80.9741 42.752 81.0979 43.9747 80.8665 45.1554C80.6351 46.336 80.0587 47.4215 79.2104 48.2746C78.3621 49.1277 77.2799 49.7101 76.1005 49.9481C74.9212 50.1861 73.6977 50.0691 72.5849 49.6118C71.4721 49.1545 70.5199 48.3775 69.8487 47.379C69.1775 46.3805 68.8175 45.2054 68.8142 44.0023C68.8105 43.2031 68.9645 42.411 69.2676 41.6715C69.5708 40.9319 70.0169 40.2596 70.5805 39.6928C71.1441 39.1261 71.814 38.6762 72.5518 38.3689C73.2896 38.0617 74.0808 37.9031 74.8801 37.9024ZM74.8801 48.3783C75.7504 48.3817 76.6021 48.1265 77.3271 47.6451C78.0521 47.1637 78.6179 46.4777 78.9525 45.6743C79.2871 44.8709 79.3754 43.9863 79.2065 43.1325C79.0375 42.2788 78.6188 41.4944 78.0034 40.8791C77.388 40.2637 76.6037 39.845 75.7499 39.676C74.8962 39.507 74.0115 39.5954 73.2081 39.93C72.4047 40.2646 71.7188 40.8303 71.2374 41.5553C70.756 42.2803 70.5007 43.1321 70.5041 44.0023C70.5086 45.1615 70.9711 46.2718 71.7908 47.0913C72.6106 47.9109 73.721 48.3741 74.8801 48.3783Z" fill="#424242"/>
<path d="M89.1132 38.3908C89.1123 38.309 89.143 38.2302 89.1989 38.1705C89.2548 38.1109 89.3316 38.0752 89.4132 38.0708H93.2992C94.0822 38.0606 94.8595 38.2061 95.5859 38.4987C96.3123 38.7913 96.9733 39.2252 97.5306 39.7753C98.0879 40.3255 98.5304 40.9808 98.8325 41.7033C99.1345 42.4258 99.2901 43.2012 99.2901 43.9843C99.2901 44.7674 99.1345 45.5427 98.8325 46.2652C98.5304 46.9877 98.0879 47.6431 97.5306 48.1932C96.9733 48.7433 96.3123 49.1773 95.5859 49.4699C94.8595 49.7625 94.0822 49.908 93.2992 49.8978H89.4132C89.3315 49.8932 89.2547 49.8572 89.1988 49.7974C89.1429 49.7376 89.1123 49.6586 89.1132 49.5768V38.3908ZM93.0662 48.2908C94.1976 48.2735 95.2767 47.8121 96.0706 47.0059C96.8646 46.1998 97.3095 45.1138 97.3095 43.9823C97.3095 42.8509 96.8646 41.7648 96.0706 40.9586C95.2767 40.1525 94.1976 39.691 93.0662 39.6738H90.8361V48.2908H93.0662Z" fill="#424242"/>
<path d="M106.532 48.1894C106.684 47.9694 106.819 47.7164 106.971 47.4964C106.996 47.446 107.032 47.4017 107.076 47.3668C107.12 47.3318 107.172 47.307 107.226 47.2941C107.281 47.2812 107.338 47.2805 107.393 47.2922C107.448 47.3038 107.5 47.3274 107.545 47.3614C108.307 48.014 109.248 48.4205 110.245 48.5274C110.475 48.5565 110.708 48.5384 110.931 48.4742C111.153 48.4099 111.36 48.301 111.539 48.1539C111.718 48.0068 111.865 47.8246 111.971 47.6187C112.077 47.4128 112.139 47.1875 112.155 46.9564C112.155 45.9424 111.277 45.3004 109.604 44.6084C107.881 43.8824 106.529 42.9864 106.529 41.0264C106.529 39.7084 107.542 37.9004 110.229 37.9004C111.346 37.9217 112.433 38.2693 113.355 38.9004C113.401 38.9304 113.44 38.9695 113.47 39.0153C113.5 39.061 113.52 39.1124 113.53 39.1663C113.539 39.2202 113.537 39.2754 113.524 39.3286C113.512 39.3817 113.488 39.4317 113.455 39.4754C113.32 39.6754 113.168 39.9144 113.033 40.1174C113.009 40.1711 112.974 40.2189 112.93 40.2574C112.886 40.2959 112.834 40.3242 112.777 40.3403C112.721 40.3565 112.662 40.36 112.604 40.3507C112.546 40.3414 112.491 40.3194 112.442 40.2864C111.76 39.8281 110.978 39.5385 110.161 39.4414C108.741 39.4414 108.251 40.3414 108.251 40.9624C108.251 41.9254 108.994 42.5174 110.397 43.0914C112.357 43.8854 114.03 44.8144 114.03 46.8764C114.03 48.6334 112.459 50.0694 110.262 50.0694C108.929 50.082 107.637 49.6073 106.629 48.7344C106.582 48.7089 106.542 48.6733 106.511 48.6301C106.48 48.587 106.459 48.5375 106.45 48.4852C106.441 48.4329 106.443 48.3791 106.457 48.3279C106.472 48.2768 106.497 48.2294 106.532 48.1894Z" fill="#424242"/>
<path d="M71.4812 5.82131C76.3562 6.54631 81.2872 7.27831 86.0752 7.56631C86.1742 7.57206 86.2721 7.54213 86.351 7.48196C86.4298 7.42178 86.4846 7.33535 86.5052 7.23831L86.7822 5.93832C86.7953 5.87996 86.7954 5.81943 86.7826 5.76101C86.7698 5.70259 86.7444 5.64767 86.7083 5.60006C86.6721 5.55245 86.626 5.51332 86.5731 5.48538C86.5203 5.45744 86.4619 5.44139 86.4022 5.43832C81.6312 5.17032 76.6842 4.43831 71.7932 3.70831C57.4292 1.57131 43.8382 -0.444683 35.5042 8.80032C35.4748 8.83368 35.4543 8.87387 35.4446 8.91723C35.4348 8.96059 35.4361 9.00573 35.4484 9.04846C35.4606 9.09118 35.4834 9.13013 35.5146 9.16174C35.5459 9.19334 35.5846 9.21657 35.6272 9.2293L37.1832 9.69131C37.2802 9.71965 37.383 9.72133 37.4808 9.69616C37.5787 9.671 37.668 9.61991 37.7393 9.5483C45.4223 1.9503 58.1012 3.83131 71.4812 5.82131Z" fill="#424242"/>
<path d="M130.999 21.495C130.968 21.4465 130.926 21.4052 130.878 21.3737C130.83 21.3422 130.775 21.3213 130.718 21.3123C130.661 21.3034 130.603 21.3066 130.547 21.3217C130.491 21.3368 130.439 21.3635 130.394 21.4C129.303 22.3216 127.911 22.809 126.483 22.769C126.09 22.7822 125.698 22.715 125.332 22.5714C124.966 22.4278 124.633 22.2109 124.353 21.934C124.178 21.6942 124.055 21.4197 123.994 21.1287C123.933 20.8378 123.935 20.5372 123.999 20.247C124.407 18.4666 125.17 16.7866 126.241 15.307C126.365 15.1116 126.423 14.8812 126.405 14.6503C126.387 14.4195 126.294 14.2008 126.141 14.027C126.006 13.8788 125.833 13.7702 125.641 13.713L122.215 12.598C122.189 12.5896 122.165 12.5755 122.145 12.5567C122.124 12.5379 122.109 12.5149 122.098 12.4893C122.088 12.4637 122.084 12.4361 122.086 12.4086C122.087 12.381 122.095 12.3542 122.108 12.33L122.246 12.077C122.264 12.0442 122.274 12.0077 122.276 11.9703C122.278 11.9329 122.272 11.8956 122.258 11.861C122.244 11.8263 122.222 11.7954 122.194 11.7703C122.166 11.7452 122.133 11.7267 122.097 11.7161L120.61 11.273C120.527 11.2479 120.438 11.2533 120.359 11.2884C120.279 11.3234 120.215 11.3858 120.178 11.464C119.244 13.442 113.272 25.148 103.203 24.192C103.178 24.189 103.153 24.1781 103.134 24.1607C103.115 24.1434 103.102 24.1206 103.097 24.0954C103.091 24.0702 103.094 24.0439 103.104 24.0202C103.114 23.9964 103.131 23.9765 103.153 23.963C103.383 23.823 103.589 23.691 103.768 23.573C107.535 21.1 109.558 18.4951 109.782 15.8321C109.843 14.7029 109.476 13.5925 108.754 12.7216C108.033 11.8507 107.011 11.2832 105.89 11.132C102.529 10.485 99.0542 13.171 97.6372 16.132C97.091 17.2614 96.7838 18.4913 96.735 19.7449C96.6861 20.9984 96.8965 22.2486 97.3531 23.417C97.4198 23.5624 97.4952 23.702 97.5792 23.8361C97.597 23.8665 97.6076 23.9005 97.6102 23.9357C97.6128 23.9708 97.6072 24.0061 97.594 24.0388C97.5807 24.0714 97.5601 24.1006 97.5338 24.1241C97.5075 24.1475 97.4761 24.1646 97.4421 24.174C95.7278 24.6956 93.9096 24.7754 92.1562 24.406C91.1881 24.2236 90.2992 23.7484 89.6098 23.0447C88.9204 22.341 88.4636 21.4427 88.3011 20.471C88.2583 19.5248 88.3671 18.5779 88.6231 17.666L90.7171 7.87203C90.7307 7.81931 90.7606 7.77228 90.8027 7.73775C90.8448 7.70323 90.8968 7.68301 90.9511 7.68004C97.8941 7.56904 104.36 6.11604 109.687 1.83004C109.767 1.76523 109.819 1.67334 109.835 1.57201C109.851 1.47068 109.829 1.36704 109.773 1.28103L109.06 0.181051C109.028 0.132399 108.987 0.0909982 108.938 0.0595907C108.889 0.0281833 108.834 0.00745354 108.776 -0.00123082C108.719 -0.00991517 108.66 -0.00634744 108.604 0.0092062C108.548 0.0247598 108.496 0.0519617 108.451 0.0890402C103.71 3.94304 97.8512 5.34204 91.5012 5.52404C91.4674 5.52491 91.4339 5.51812 91.403 5.50417C91.3722 5.49023 91.345 5.46948 91.3233 5.4435C91.3017 5.41752 91.2862 5.38699 91.278 5.35418C91.2699 5.32136 91.2693 5.28714 91.2762 5.25405L92.0312 1.72503C92.0527 1.62478 92.0361 1.52013 91.9847 1.43142C91.9333 1.3427 91.8508 1.27628 91.7531 1.24505L90.5062 0.845052C90.4512 0.827431 90.3932 0.821504 90.3358 0.827688C90.2784 0.833871 90.223 0.852016 90.1731 0.880941C90.1231 0.909866 90.0798 0.948932 90.0459 0.995626C90.012 1.04232 89.9882 1.09559 89.9762 1.15203L89.1952 4.78405C88.6602 7.27005 86.2822 18.776 85.7581 20.262C85.4377 21.3275 84.8901 22.3108 84.1529 23.1442C83.4157 23.9775 82.5066 24.641 81.4881 25.089C80.1491 25.589 78.2022 25.575 77.2552 24.7C76.4012 23.911 76.4742 22.2951 76.8102 21.0561C76.8592 20.9101 77.9592 16.5751 78.3042 15.5561L78.4471 15.129C78.4646 15.0773 78.4718 15.0226 78.468 14.9682C78.4642 14.9137 78.4497 14.8605 78.4253 14.8117C78.4008 14.7628 78.3669 14.7193 78.3255 14.6837C78.2842 14.6481 78.2361 14.621 78.1842 14.6041L76.9461 14.198C76.8424 14.1641 76.7295 14.1725 76.6319 14.2214C76.5344 14.2702 76.4601 14.3556 76.4251 14.459L76.3851 14.579C76.3762 14.606 76.3604 14.6301 76.339 14.6488C76.3176 14.6675 76.2915 14.68 76.2635 14.6851C76.2356 14.6903 76.2068 14.6878 76.1801 14.6779C76.1535 14.668 76.13 14.6511 76.1122 14.629C75.8337 14.2742 75.5049 13.9619 75.1362 13.702C74.3106 13.1356 73.3304 12.8377 72.3292 12.849C69.2292 12.849 66.8681 15.109 65.1821 17.482C62.8955 20.9084 59.7021 23.6322 55.9581 25.35C54.4137 26.0642 52.7707 26.5422 51.0842 26.768C50.602 26.8415 50.1118 26.8466 49.6281 26.783C49.6051 26.7812 49.5834 26.772 49.5661 26.7566C49.5489 26.7413 49.5371 26.7208 49.5326 26.6982C49.528 26.6755 49.5311 26.6521 49.5411 26.6313C49.5511 26.6105 49.5676 26.5936 49.5881 26.583C51.7508 25.4114 53.6627 23.8268 55.2152 21.919C55.745 21.3089 56.1389 20.5929 56.3705 19.8187C56.602 19.0445 56.666 18.2299 56.5582 17.429C56.3566 16.566 55.913 15.7784 55.2796 15.1585C54.6463 14.5386 53.8493 14.1121 52.9821 13.929C51.3641 13.6171 49.6881 13.9393 48.3011 14.829C45.8849 16.3455 44.1595 18.7488 43.4952 21.523C43.2731 22.3428 43.2283 23.2004 43.3639 24.0388C43.4994 24.8772 43.8121 25.6771 44.2812 26.385C44.3011 26.4116 44.3142 26.4426 44.3195 26.4753C44.3249 26.5081 44.3221 26.5416 44.3116 26.5731C44.3011 26.6046 44.2831 26.633 44.2591 26.656C44.2352 26.679 44.206 26.6958 44.1742 26.705C41.7972 27.348 39.0142 27.384 36.9952 26.128C36.5296 25.8437 36.1418 25.4481 35.8669 24.9768C35.592 24.5055 35.4384 23.9733 35.4201 23.428C35.3671 22.089 36.0851 21.099 37.9981 18.813C38.1537 18.6263 38.2407 18.3918 38.2445 18.1488C38.2483 17.9057 38.1688 17.6686 38.0191 17.477C37.883 17.3099 37.7009 17.1865 37.4952 17.122L34.2281 16.032C34.1932 16.0202 34.1614 16.001 34.1346 15.9756C34.1079 15.9503 34.0869 15.9194 34.0733 15.8852C34.0597 15.8509 34.0537 15.8141 34.0558 15.7773C34.0578 15.7405 34.0679 15.7046 34.0852 15.672C34.1522 15.542 34.2161 15.412 34.2791 15.281C34.2963 15.2463 34.3057 15.2082 34.3066 15.1694C34.3075 15.1307 34.3 15.0921 34.2845 15.0566C34.269 15.0211 34.2458 14.9894 34.2168 14.9637C34.1877 14.938 34.1534 14.919 34.1162 14.908L32.6711 14.4791C32.5804 14.4526 32.4835 14.458 32.3963 14.4944C32.3092 14.5308 32.237 14.5959 32.1921 14.679C30.6031 17.531 27.7201 20.797 22.5461 23.92C22.5209 23.9359 22.4917 23.9439 22.462 23.943C22.4323 23.9422 22.4035 23.9325 22.3792 23.9153C22.355 23.898 22.3364 23.874 22.3259 23.8462C22.3154 23.8183 22.3134 23.788 22.3202 23.7591C22.6432 22.4381 23.0202 20.9531 23.3972 19.5001C23.3972 19.4941 23.3972 19.4891 23.3972 19.4831C24.1052 16.7541 24.8132 14.143 25.1692 12.964C25.2003 12.8609 25.1899 12.7496 25.14 12.654C25.0901 12.5585 25.0047 12.4864 24.9022 12.4531L23.6642 12.046C23.6117 12.0286 23.5563 12.0218 23.5012 12.0262C23.4461 12.0305 23.3925 12.0459 23.3435 12.0713C23.2944 12.0968 23.2509 12.1318 23.2157 12.1744C23.1804 12.2169 23.1541 12.2661 23.1382 12.3191C23.0972 12.4571 23.0502 12.614 23.0012 12.787C22.9911 12.8228 22.9708 12.8548 22.9427 12.8791C22.9147 12.9035 22.8802 12.919 22.8434 12.9239C22.8065 12.9288 22.769 12.9228 22.7356 12.9067C22.7021 12.8905 22.6742 12.8649 22.6551 12.833C22.2408 12.1305 21.683 11.5233 21.0182 11.051C20.078 10.4419 19.0024 10.0736 17.8862 9.97872C16.77 9.88384 15.6476 10.0653 14.6181 10.507C12.2261 11.495 10.1664 13.1463 8.68185 15.2663C7.19729 17.3862 6.3497 19.8864 6.2391 22.472C6.17609 23.5909 6.38945 24.7081 6.86032 25.725C7.33119 26.7419 8.04518 27.6273 8.93918 28.303C9.46322 28.6726 10.0275 28.9816 10.6212 29.2241C10.6654 29.2418 10.7036 29.2717 10.7315 29.3103C10.7595 29.3489 10.776 29.3946 10.7791 29.4421C10.7823 29.4896 10.772 29.5371 10.7494 29.579C10.7267 29.6209 10.6927 29.6556 10.6512 29.679C8.26424 31.0513 6.1051 32.7864 4.25119 34.822C1.69919 37.734 0.180097 42.022 0.557097 45.258C0.645432 46.2023 0.926182 47.1185 1.38193 47.9502C1.83767 48.7818 2.45879 49.5115 3.20712 50.094C4.36207 50.9369 5.75954 51.3819 7.18918 51.362C9.57468 51.272 11.8637 50.397 13.7011 48.873C18.4471 45.073 19.1671 40.563 19.8631 36.202L20.0632 34.9831C20.7782 30.6831 20.7782 30.683 21.3082 28.219L21.4151 27.719C21.4691 27.472 21.5754 27.2394 21.7269 27.0369C21.8783 26.8343 22.0715 26.6666 22.2932 26.545C26.3371 24.4537 29.8779 21.508 32.6701 17.912C32.6952 17.8763 32.7312 17.8497 32.7727 17.8364C32.8142 17.823 32.859 17.8236 32.9001 17.838L35.1002 18.572C35.1319 18.5824 35.1606 18.6002 35.1839 18.624C35.2073 18.6477 35.2247 18.6768 35.2345 18.7086C35.2443 18.7405 35.2463 18.7742 35.2403 18.807C35.2344 18.8398 35.2206 18.8707 35.2002 18.8971C33.9202 20.5371 33.2311 21.813 33.3001 23.528C33.3359 24.4192 33.5895 25.2881 34.0388 26.0586C34.488 26.8292 35.1192 27.4779 35.8772 27.948C37.4317 28.866 39.2123 29.3301 41.0172 29.288C42.8409 29.2247 44.6427 28.8699 46.3542 28.2371C46.3901 28.2239 46.4281 28.2181 46.4663 28.22C46.5044 28.2219 46.5418 28.2314 46.5761 28.248C48.0554 28.8853 49.6843 29.0933 51.2762 28.848C55.861 28.1525 60.1134 26.0406 63.4382 22.808C63.4581 22.789 63.4831 22.7762 63.5102 22.7712C63.5373 22.7661 63.5653 22.7691 63.5908 22.7797C63.6162 22.7903 63.638 22.8081 63.6535 22.8309C63.669 22.8537 63.6777 22.8805 63.6782 22.908C63.6864 23.7176 63.882 24.5143 64.2498 25.2356C64.6177 25.9568 65.1477 26.583 65.7982 27.0651C66.6239 27.6321 67.6046 27.93 68.6062 27.9181C69.7497 27.8529 70.8675 27.553 71.89 27.0368C72.9125 26.5207 73.8177 25.7994 74.5492 24.9181C74.5712 24.893 74.5991 24.8739 74.6305 24.8624C74.6618 24.8509 74.6955 24.8475 74.7285 24.8523C74.7615 24.8572 74.7928 24.8702 74.8194 24.8903C74.8461 24.9103 74.8673 24.9367 74.8812 24.967C75.1001 25.4635 75.4186 25.9098 75.8171 26.278C76.8766 27.159 78.2255 27.6151 79.6021 27.558C80.4998 27.5602 81.391 27.4052 82.2352 27.1C84.1328 26.3459 85.719 24.9712 86.7352 23.2C86.7467 23.181 86.7628 23.1652 86.7822 23.1543C86.8016 23.1433 86.8234 23.1376 86.8457 23.1376C86.8679 23.1376 86.8898 23.1433 86.9091 23.1543C86.9285 23.1652 86.9447 23.181 86.9561 23.2C88.0589 24.8421 89.7351 26.0132 91.6562 26.484C92.5053 26.7017 93.3797 26.805 94.2562 26.791C95.9964 26.7648 97.7187 26.4359 99.3462 25.8191C99.5659 25.7371 99.8068 25.7315 100.03 25.803C100.169 25.8484 100.312 25.888 100.458 25.922C111.488 28.463 117.805 19.822 120.863 14.587C120.888 14.543 120.928 14.509 120.975 14.4907C121.022 14.4725 121.074 14.4712 121.122 14.4871L123.479 15.254C123.509 15.2638 123.537 15.2801 123.56 15.3019C123.583 15.3237 123.6 15.3504 123.612 15.3799C123.623 15.4095 123.627 15.4412 123.625 15.4727C123.622 15.5043 123.612 15.5348 123.596 15.562C122.756 16.905 122.179 18.3955 121.896 19.954C121.788 20.538 121.805 21.1385 121.947 21.7153C122.089 22.2921 122.352 22.8321 122.719 23.299C123.185 23.8077 123.753 24.2133 124.385 24.4897C125.017 24.7661 125.7 24.9073 126.39 24.904C126.506 24.909 126.622 24.912 126.739 24.912C128.525 24.897 130.253 24.2757 131.639 23.15C131.718 23.0855 131.77 22.9942 131.785 22.8938C131.8 22.7933 131.777 22.6908 131.721 22.606L130.999 21.495ZM17.9492 34.6901L17.7591 35.863C17.0701 40.187 16.4752 43.921 12.3702 47.206C10.1802 48.957 6.77018 50.069 4.47018 48.374C3.95692 47.9648 3.53249 47.4551 3.22299 46.8761C2.91349 46.2972 2.72539 45.6612 2.67013 45.007C2.36213 42.37 3.69919 38.675 5.85019 36.223C8.35362 33.5083 11.4238 31.3779 14.8431 29.9831C15.6721 29.6611 16.4732 29.33 17.2562 28.993C17.2862 28.98 17.3162 28.972 17.3462 28.96V28.954C17.8462 28.737 18.3462 28.518 18.8282 28.295C18.8574 28.2815 18.8896 28.2765 18.9215 28.2804C18.9534 28.2844 18.9835 28.2972 19.0085 28.3174C19.0335 28.3376 19.0523 28.3643 19.0628 28.3947C19.0734 28.425 19.0753 28.4577 19.0682 28.489C18.6762 30.332 18.6052 30.7481 17.9492 34.6901ZM21.3242 18.99C20.8022 21.003 20.2821 23.0731 19.9001 24.6901C19.8402 24.9431 19.7248 25.1797 19.5622 25.3828C19.3997 25.5858 19.194 25.7502 18.9602 25.864C18.1532 26.264 17.3011 26.6501 16.4101 27.0351C13.2551 28.3011 11.3341 27.375 10.1611 26.553C9.55198 26.0696 9.07027 25.4446 8.75778 24.7325C8.44529 24.0203 8.31152 23.2426 8.36813 22.467C8.47873 20.3188 9.19179 18.245 10.4256 16.483C11.6595 14.7209 13.3643 13.3417 15.3452 12.503C16.0547 12.1851 16.8311 12.0451 17.6069 12.0953C18.3828 12.1455 19.1346 12.3843 19.7972 12.791C21.4012 13.914 21.9872 16.29 21.3242 18.989V18.99ZM45.5761 21.998C46.1189 19.7902 47.4932 17.8772 49.4122 16.658C50.1241 16.2078 50.9451 15.9599 51.7872 15.941C52.0314 15.9402 52.2749 15.9667 52.5132 16.02C52.9782 16.1128 53.408 16.3339 53.754 16.6581C54.1 16.9824 54.3484 17.397 54.4712 17.855C54.5077 18.3617 54.4423 18.8705 54.2788 19.3515C54.1153 19.8324 53.8569 20.2757 53.5191 20.6551C51.6773 22.7963 49.391 24.5104 46.8192 25.678C46.7504 25.7116 46.673 25.7229 46.5975 25.7103C46.5221 25.6978 46.4524 25.662 46.3982 25.6081C45.9542 25.1325 45.6442 24.5478 45.4998 23.9135C45.3554 23.2791 45.3817 22.6179 45.5761 21.997V21.998ZM75.0191 19.477C75.0141 19.501 75.0091 19.526 75.0031 19.55C74.7671 20.6556 74.3084 21.7015 73.6551 22.624C73.1099 23.5015 72.3712 24.2426 71.4956 24.7909C70.62 25.3391 69.6306 25.6798 68.6031 25.787C68.0382 25.8005 67.4834 25.6369 67.0162 25.3191C66.5964 24.9815 66.2652 24.5468 66.0512 24.0525C65.8373 23.5581 65.747 23.0191 65.7882 22.482C65.837 20.9244 66.3561 19.4181 67.2772 18.161C67.8225 17.2837 68.5611 16.5427 69.4367 15.9947C70.3124 15.4466 71.3018 15.1061 72.3292 14.999C72.8937 14.9859 73.4482 15.1495 73.9151 15.467C74.9921 16.212 75.3501 17.765 75.0191 19.477ZM100.219 23.139C100.106 23.1914 99.978 23.2029 99.8571 23.1718C99.7363 23.1406 99.63 23.0686 99.5561 22.968C99.4467 22.8203 99.3519 22.6622 99.2732 22.4961C98.9579 21.6157 98.8208 20.6815 98.8701 19.7477C98.9194 18.8139 99.154 17.8993 99.5602 17.057C100.515 15.057 102.781 13.172 104.876 13.172C105.083 13.1717 105.288 13.1908 105.491 13.2291C106.089 13.2936 106.641 13.5773 107.042 14.0253C107.442 14.4734 107.663 15.054 107.66 15.655C107.495 17.605 105.745 19.728 102.598 21.794C101.837 22.2952 101.042 22.7433 100.219 23.135V23.139Z" fill="#424242"/>
</svg>
