<svg width="152" height="49" viewBox="0 0 152 49" fill="none" xmlns="http://www.w3.org/2000/svg">
<g clip-path="url(#clip0_2225_18311)">
<mask id="mask0_2225_18311" style="mask-type:luminance" maskUnits="userSpaceOnUse" x="0" y="0" width="152" height="49">
<path d="M152 0H0V49H152V0Z" fill="rgba(255, 255, 255, 0.75)"/>
</mask>
<g mask="url(#mask0_2225_18311)">
<path d="M12.3072 47.7269H1.38595C1.01837 47.7269 0.665851 47.5803 0.405935 47.3195C0.146019 47.0586 0 46.7048 0 46.3359L0 2.61572C0 2.24681 0.146019 1.89302 0.405935 1.63216C0.665851 1.3713 1.01837 1.22476 1.38595 1.22476H12.3072C12.6748 1.22476 13.0273 1.3713 13.2872 1.63216C13.5472 1.89302 13.6932 2.24681 13.6932 2.61572V7.05948C14.9405 4.92919 16.7185 3.16115 18.8526 1.92902C21.259 0.587407 23.981 -0.0791838 26.7328 -0.000755657C29.6269 -0.0780318 32.4852 0.655357 34.9872 2.11717C37.3124 3.54353 39.1708 5.62169 40.3333 8.09539C41.7818 5.63666 43.8531 3.60663 46.3367 2.21161C49.0599 0.696541 52.1346 -0.0668471 55.2476 -0.000755657C60.5619 -0.000755657 64.6577 1.6623 67.5351 4.98841C70.4126 8.31452 71.851 12.8332 71.8505 18.5445V46.3344C71.8505 46.7034 71.7045 47.0572 71.4446 47.318C71.1847 47.5789 70.8322 47.7254 70.4646 47.7254H59.5426C59.175 47.7254 58.8225 47.5789 58.5626 47.318C58.3027 47.0572 58.1566 46.7034 58.1566 46.3344V21.7422C58.1566 18.8563 57.5157 16.5969 56.2338 14.9638C55.5778 14.1484 54.7379 13.5013 53.7834 13.076C52.829 12.6507 51.7874 12.4594 50.7447 12.5179C49.6481 12.4827 48.5587 12.7073 47.5648 13.1734C46.5708 13.6396 45.7002 14.3342 45.0237 15.201C43.5847 16.9893 42.8341 19.4525 42.7719 22.5907V46.3344C42.7719 46.7034 42.6258 47.0572 42.3659 47.318C42.106 47.5789 41.7535 47.7254 41.3859 47.7254H30.4654C30.0978 47.7254 29.7453 47.5789 29.4853 47.318C29.2254 47.0572 29.0794 46.7034 29.0794 46.3344V21.9333C29.0794 18.921 28.454 16.5988 27.2033 14.9667C26.5595 14.1492 25.7287 13.4997 24.7813 13.0734C23.8339 12.6471 22.798 12.4565 21.7616 12.5179C20.6352 12.4832 19.5167 12.7172 18.498 13.2008C17.4794 13.6845 16.5896 14.4039 15.9019 15.2998C14.4324 17.152 13.6976 19.6782 13.6976 22.8784V46.3344C13.6976 46.7034 13.5515 47.0572 13.2916 47.318C13.0317 47.5789 12.6792 47.7254 12.3116 47.7254" fill="#2C4052"/>
<path d="M125.483 36.0823C125.67 36.156 125.837 36.2692 125.976 36.4142C126.114 36.5592 126.22 36.7325 126.285 36.9222C126.35 37.112 126.374 37.3137 126.354 37.5134C126.334 37.7132 126.272 37.9063 126.171 38.0795C124.309 41.2228 121.689 43.8452 118.552 45.7049C114.894 47.9011 110.532 48.9993 105.467 48.9993C102.07 49.0405 98.6957 48.4336 95.5243 47.2108C92.6261 46.0864 89.9915 44.3717 87.7864 42.1748C85.5928 39.9551 83.8693 37.3129 82.7196 34.4073C81.4754 31.2636 80.8539 27.9066 80.8902 24.5242C80.8565 21.1871 81.4782 17.876 82.7196 14.7801C83.8849 11.8834 85.6059 9.24476 87.7849 7.01411C89.9506 4.81203 92.5338 3.06757 95.3821 1.88365C98.4015 0.637505 101.64 0.0131173 104.904 0.0475806C108.199 0.00761506 111.468 0.631977 114.518 1.88365C117.337 3.04635 119.879 4.79485 121.976 7.01411C124.086 9.28886 125.728 11.9603 126.806 14.8745C127.991 18.0817 128.579 21.48 128.541 24.9004C128.541 25.717 128.526 26.4073 128.495 26.9715V26.9884C128.472 27.3414 128.316 27.6725 128.058 27.9142C127.801 28.1559 127.461 28.29 127.109 28.2893H94.3047C94.4115 29.61 94.7954 30.893 95.431 32.0544C96.063 33.1932 96.9066 34.1999 97.9162 35.0201C98.9539 35.8705 100.127 36.5388 101.387 36.9967C102.695 37.4723 104.076 37.7115 105.467 37.7032C107.603 37.8149 109.724 37.2907 111.564 36.1965C112.838 35.3308 113.941 34.2347 114.816 32.9644C114.995 32.7099 115.255 32.5232 115.552 32.4343C115.85 32.3453 116.169 32.3593 116.457 32.4739L125.483 36.0823ZM115.125 19.3461C114.868 16.9415 113.692 14.7308 111.843 13.1797C109.868 11.5446 107.366 10.691 104.808 10.78C103.493 10.7685 102.188 11.008 100.962 11.4857C98.6728 12.3915 96.7444 14.0292 95.4755 16.1454C94.89 17.1217 94.522 18.2136 94.3966 19.3461H115.125Z" fill="#2C4052"/>
<path d="M152 40.6198C152 42.2677 151.513 43.8785 150.601 45.2486C149.688 46.6187 148.392 47.6865 146.875 48.317C145.358 48.9475 143.689 49.1124 142.078 48.7907C140.468 48.4691 138.989 47.6754 137.828 46.5101C136.667 45.3447 135.877 43.86 135.557 42.2438C135.237 40.6276 135.401 38.9524 136.03 37.4301C136.659 35.9078 137.723 34.6069 139.088 33.6917C140.454 32.7765 142.059 32.2883 143.701 32.2887C145.902 32.2887 148.014 33.1664 149.571 34.7288C151.127 36.2912 152.002 38.4103 152.002 40.6198" fill="#2C4052"/>
</g>
</g>
<defs>
<clipPath id="clip0_2225_18311">
<rect width="152" height="49" fill="rgba(255, 255, 255, 0.75)"/>
</clipPath>
</defs>
</svg>
